<svg id="Layer_1" data-name="Layer 1" xmlns="http://www.w3.org/2000/svg" viewBox="0 0 3000 3000"><defs><style>.cls-1{fill:none;stroke:#00e;stroke-miterlimit:10;stroke-width:0.5px;}</style></defs><title>home_bluesun</title><path class="cls-1" d="M1500,0C671.57,0,0,671.57,0,1500S671.57,3000,1500,3000s1500-671.58,1500-1500S2328.43,0,1500,0Zm0,0V1500m0,0V2999.84M1500,1500l55.39,1498.9M1500,1500l110.78,1495.88M1500,1500l165.86,1490.67M1500,1500l220.93,1483.54M1500,1500l275.53,1474.36M1500,1500l329.82,1463.13M1500,1500l383.78,1450M1500,1500l437,1434.8M1500,1500l489.82,1417.71M1500,1500l541.73,1398.55M1500,1500l593.16,1377.67M1500,1500l643.65,1354.71M1500,1500l693.18,1330M1500,1500l741.93,1303.59M1500,1500l789.57,1275.28M1500,1500l836.09,1245.2M1500,1500l881.67,1213.39M1500,1500l925.83,1180M1500,1500l968.87,1145M1500,1500,2510.49,2608.46M1500,1500,2550.7,2570.32M1500,1500,2589.62,2530.75M1500,1500l1127,989.77M1500,1500l1162.74,947.51M1500,1500l1196.93,903.83M1500,1500l1229.54,859M1500,1500l1260.39,813M1500,1500l1289.67,765.83M1500,1500l1317,717.71M1500,1500l1342.68,668.49M1500,1500l1366.42,618.48M1500,1500l1388.42,567.52M1500,1500l1408.36,515.93M1500,1500l1426.57,463.55M1500,1500l1442.71,410.37M1500,1500l1456.8,356.88M1500,1500l1469,302.75M1500,1500l1479.26,248.31M1500,1500l1487.33,193.4M1500,1500l1493.51,138.32M1500,1500l1497.62,83.09M1500,1500l1499.68,27.7M1500,1500l1499.68-27.7M1500,1500l1497.62-83.09M1500,1500l1493.51-138.48M1500,1500l1487.33-193.55M1500,1500l1479.26-248.31M1500,1500l1469-302.91M1500,1500l1456.8-356.88M1500,1500l1442.71-410.53M1500,1500l1426.57-463.55M1500,1500,2908.36,984.07M1500,1500,2888.42,932.32M1500,1500,2866.42,881.51M1500,1500,2842.68,831.35M1500,1500,2817,782.29M1500,1500,2789.67,734M1500,1500,2760.39,686.85M1500,1500,2729.54,640.8M1500,1500,2696.93,596M1500,1500,2662.74,552.49M1500,1500,2627,510.08M1500,1500,2589.62,469.09M1500,1500,2550.7,429.52M1500,1500,2510.49,391.54M1500,1500,2468.87,354.82M1500,1500,2425.83,319.85M1500,1500,2381.67,286.45M1500,1500,2336.09,254.64M1500,1500,2289.57,224.73M1500,1500,2241.93,196.4M1500,1500,2193.18,169.81M1500,1500,2143.65,145.13M1500,1500,2093.16,122.34M1500,1500,2041.73,101.29M1500,1500,1989.82,82.3M1500,1500,1937,65M1500,1500,1883.78,49.85M1500,1500,1829.82,36.72M1500,1500,1775.53,25.48M1500,1500,1720.93,16.3M1500,1500,1665.86,9.18M1500,1500,1610.78,4.11M1500,1500,1555.39,1M1500,1500,1444.61,1M1500,1500,1389.22,4.11M1500,1500,1334,9.18M1500,1500,1279.07,16.3M1500,1500,1224.31,25.48M1500,1500,1170,36.72M1500,1500,1116.22,49.85M1500,1500,1062.88,65M1500,1500,1010.18,82.3M1500,1500,958.11,101.29M1500,1500,906.84,122.34M1500,1500,856.35,145.13M1500,1500,806.66,169.81M1500,1500,758.07,196.4M1500,1500,710.28,224.73M1500,1500,663.75,254.64M1500,1500,618.33,286.45M1500,1500,574,319.85M1500,1500,531.12,354.82M1500,1500,489.5,391.54M1500,1500,449.14,429.52M1500,1500,410.37,469.09M1500,1500,373,510.08M1500,1500,337.26,552.49M1500,1500,302.91,596M1500,1500,270.31,640.8M1500,1500,239.45,686.85M1500,1500,210.33,734M1500,1500,183,782.29M1500,1500,157.31,831.35M1500,1500,133.41,881.51M1500,1500,111.57,932.32M1500,1500,91.48,984.07M1500,1500,73.43,1036.45M1500,1500,57.29,1089.47M1500,1500,43.05,1143.12M1500,1500,30.86,1197.09M1500,1500,20.73,1251.69M1500,1500,12.5,1306.45M1500,1500,6.33,1361.52M1500,1500,2.37,1416.91M1500,1500,.32,1472.3M1500,1500,.32,1527.7M1500,1500,2.37,1583.09M1500,1500,6.33,1638.32M1500,1500,12.5,1693.4M1500,1500,20.73,1748.31M1500,1500,30.86,1802.75M1500,1500,43.05,1856.88M1500,1500,57.29,1910.37M1500,1500,73.43,1963.55M1500,1500,91.48,2015.93M1500,1500,111.57,2067.52M1500,1500,133.41,2118.48M1500,1500,157.31,2168.49M1500,1500,183,2217.71M1500,1500,210.33,2265.83M1500,1500,239.45,2313M1500,1500,270.31,2359M1500,1500,302.91,2403.83M1500,1500,337.26,2447.51M1500,1500,373,2489.77M1500,1500,410.37,2530.75M1500,1500,449.14,2570.32M1500,1500,489.5,2608.46M1500,1500,531.12,2645M1500,1500,574,2680m926-1180L618.33,2713.39M1500,1500,663.75,2745.2M1500,1500,710.28,2775.28M1500,1500,758.07,2803.59M1500,1500,806.66,2830M1500,1500,856.35,2854.71M1500,1500,906.84,2877.67M1500,1500,958.11,2898.55M1500,1500,1010.18,2917.71M1500,1500,1062.88,2934.8M1500,1500,1116.22,2950M1500,1500,1170,2963.13M1500,1500,1224.31,2974.36M1500,1500,1279.07,2983.54M1500,1500,1334,2990.67M1500,1500,1389.22,2995.88M1500,1500l-55.39,1498.9"/></svg>