<svg xmlns="http://www.w3.org/2000/svg" width="247.89" height="287.8" viewBox="0 0 247.89 287.8">
  <defs>
    <style>
      .cls-1 {
        fill: #f3f0d1;
      }

      .cls-2 {
        fill: none;
        stroke: #f3f0d1;
        stroke-miterlimit: 10;
        stroke-width: 0.75px;
      }
    </style>
  </defs>
  <g id="Layer_2" data-name="Layer 2">
    <g id="Layer_1-2" data-name="Layer 1">
      <g>
        <g>
          <path class="cls-1" d="M157.62,183.07a8.92,8.92,0,0,0,.15-1.94c-.42.27-.59.33-.68.46-2.24,2.81-6,3.87-9.53,3.69-3.3-.12-5.66,2.62-3.43,5.57a85,85,0,0,1-24,2.06c1.73-9.81,9-17.08,11.79-26.42.42-2,0-5.52-2.64-5.57-3.82.38-5.71,4.34-8.6,6.4a212.83,212.83,0,0,1-18.91,13.76c2.71-.26,4.75-1.63,6.83-3.23,4.69-3.75,11.3-5.48,17.12-3.64a97.21,97.21,0,0,0-6.25,18.46c-1.23.36-11.08-.92-12-1.68,2.1-1.4,2-3.86-.53-4.46a38.25,38.25,0,0,0-5.35-.47c-3.94.06-7.16-1.77-10.22-4.12,1.93,9.14,18.92,10.45,26.54,11.45,3.17-.36-1.79,7.5,3.43,17.47,1.3,3.35,7.91,6.4,9.63,1.95,1.25-3.65-2.76-8.8-6.3-9.39a5,5,0,0,0,1.88,1.47c3.39,1.43,4.08,8.28-.35,8.43-7,0-7.86-14.7-6.4-19.7C129.06,194,153.78,193.06,157.62,183.07Zm-44.93-8.17-.17-.36c3.46-2.76,7-5.46,10.39-8.41l.2.13a7.07,7.07,0,0,0,1.24,6.77C120.13,172.57,116.28,173,112.69,174.9Zm10.71-7.71c-.06-2,3.3-5.87,4.51-2.73.84,2.9-.75,5.65-1.46,8.39C123.54,172.07,123.05,169.39,123.4,167.19Zm-.67,15.53c1.6-3.92,3.24-7.82,4.82-11.75,1.16-2.64,2.08-6.18-.35-8.4,3.39-3.23,5.09,2.26,3.94,4.89-2.09,5.91-5.73,11.13-8.58,16.68l-.24-.11C122.45,183.59,122.56,183.14,122.73,182.72Zm-18.2,7.82c-4.15-1.36-9.26-2.66-11.75-6.51l.18-.24c4,2.91,8.85,2.75,13.56,3.17C110.71,187.93,107.52,191.4,104.53,190.54Zm24.77,21.33a12.41,12.41,0,0,0,.65-3c1.79,2.29.36,6.32-2.57,5.29A11.74,11.74,0,0,0,129.3,211.87Zm16.19-21.77c-2,0-2.32-2.16-.77-3.22a8.22,8.22,0,0,1,2.42-.81c3.82-.57,6.83-.33,9.76-3.34C157.44,186,148.23,190.41,145.49,190.1Z"/>
          <path class="cls-1" d="M171.16,167.53c-.32-9.59-4.4-18.08-8.34-26.6h3.05c5.09-7,.49-15.53-.61-23.06-1.16-8,6.82-13.45,4.86-21.45-.74.53-.56,1.14-.48,1.69,1,6.89-5.27,12-11.23,13.83-2.58.85-5.34,1.16-7.93,2l0,.31c3.1.74,9.7-.15,11.78,2.47a27.74,27.74,0,0,1,5.11,14.07c.61,3.1-1,14.35-5.09,7.45-1.78-4.61-2.16-9.61-3.67-14.26l-.21,0a66,66,0,0,0,7.38,25.36c8.21,17.47,5.78,36.08-12,46.17-2.07,1.32-2.77,4.83-.32,5.65,5.13.55,9-3.86,11.76-7.55C170.6,186.11,171.56,176.52,171.16,167.53ZM164.89,119l-.39.08c-2.47-5.36-5-4-9.73-5l0-.21a42.69,42.69,0,0,0,12.28-5.9A13.45,13.45,0,0,0,164.89,119Zm4.88,62.17c-2,7.82-6.43,18.12-15.45,19.23-3.2-.2-1.06-4,.71-4.81a30.79,30.79,0,0,0,14.86-17.84l.38.09C170.11,179,170,180.1,169.77,181.18Z"/>
          <path class="cls-1" d="M124.93,150c7.57.77,14.13.9,20.33-4.21,0-.29.9-.73,1.05-.85a20.43,20.43,0,0,0,4.29-5.14c2.45-3.73.85-12.25-4.67-10.92a1.9,1.9,0,0,0-1.26,3.09c7.55,7.94-1.84,17-10.42,17.51-4.52.29-10.52.33-12.67-4.51-1.33,2-2.71,3.49-5.26,3.46-6.26.28-12.55.79-18.63-1.17-3.9-1.49-2.89-6.87-1.36-9.79a5.22,5.22,0,0,0,.72-3.63c-.73-3.15-4.75-1.22-5.23,1.06a22,22,0,0,0-.83,4.87c.06,9.66,11.84,9.72,18.92,9.8,3.7.2,10-1.65,10.73,3.66a9.53,9.53,0,0,0,.52,2.91l.28-.05C121.58,153.79,121.76,149.81,124.93,150Zm23.18-10.27c1.18-5.83-4-7.86-2.84-9.45a2.67,2.67,0,0,1,3-.38c4.29,2.76,2.95,10.18-1.05,12.45A21.1,21.1,0,0,0,148.11,139.74Zm-53.37,6.13c-3.6-2.41-3.53-7.34-2.2-11,1.89-3.63,5.36-1.89,3.61,1.91a12.19,12.19,0,0,0-1.31,8.32C94.91,145.45,94.93,145.43,94.74,145.87Zm26.7,6.28L118.66,149l2.78-2.4,3,2.9C122.51,149.57,122.05,151,121.44,152.15Z"/>
          <path class="cls-1" d="M87.93,140.16a11.26,11.26,0,0,1,9.12-11.68c3.8-.86,4-6.32.62-7.92,6.33-6.64,30.89-9.45,41.83-4.1-3.4,2.84-2.91,8.14,1.63,9.26,2.05.52,4.18.77,6.29,1.09,6.34,1.22,7.15,9.42,5.57,14.61.81,0,.88,0,1.16-.57,6.93-14.25-9.34-25.35-21.91-27-13.92-2.34-29.73.23-40.34,10.1-5.71,5.15-8.7,14.4-3.87,21.06l.3-.08C88.55,143.35,87.92,141.76,87.93,140.16Zm54.27-22.62c7.46,3.2,14.94,11,12.56,19.69l-.28,0c-.43-9.2-3.81-11.3-12.49-12C136.05,124.59,137.28,115.29,142.2,117.54Zm-55,24.29c-2.27-5-.64-10.23,2.38-14.48,1.63-1.93,6.66-8.63,9.12-5.19,1.39,2.13.88,5-1.75,5.72-5.88,1.68-9.91,6.25-9.49,12.56C87.38,141,87.69,141.38,87.18,141.83Z"/>
          <path class="cls-1" d="M91.62,178.9c.68-2.66.39-5.85,2.45-7.93,3.52-4.14,15.8-.66,11.37-9.57,14.43-4.39,29.77-3.53,44.25,0,0,.58-.31.68-.61,1.07-3.09,4.06,3.26,6,6.16,7,3.31,1,4.49,4.35,4.58,7.5H160c.7-2.67-.13-5.61-.85-8.24-1.44-4.86-6.39-7.57-11.11-8.32-13.47-2.68-27.75-4-41.1,0-8.35,2.06-19.71,9.52-15.48,19.43C91.56,179.33,91.58,179.11,91.62,178.9Zm59.88-16.75a10.81,10.81,0,0,1,7.66,9l-.21.14c-2.4-2.77-6.18-3-9.08-5C147.82,165.1,149.34,161.68,151.5,162.15ZM91.67,172.41a12.79,12.79,0,0,1,5.15-6.56,66.62,66.62,0,0,1,6.44-3.61c1.51-.74,2.38-.1,2.54,1.58.75,5.06-8.49,2.85-11.84,6.42-1.57,1.33-1.84,3.3-2.35,5.14l-.24,0A4,4,0,0,1,91.67,172.41Z"/>
          <path class="cls-1" d="M138.2,109.75c9.29,1.31,25.32.34,28.25-10.56.84-4.59-.81-9.94-5.4-11.81-3.05-1.3-4.71,2.68-2.66,4.38A7.19,7.19,0,0,0,161,93c6.15,1.64,6,8.77,1,11.88-7.35,5-17.35,6-25.81,3.72a2.61,2.61,0,0,1,.14-.46,3.71,3.71,0,0,0,1.05-4.14c-1.63-4-7.09-3.47-10-6.35-4.26-3.54-2-9.3-1.08-13.85C121.37,93.54,126.15,108.52,138.2,109.75Zm23.63-17.32c-1.59-.57-4.34-.9-3.72-3.18a1.82,1.82,0,0,1,2.28-1.35c3.61.78,5.64,4.89,5.8,8.32l-.24.08A6.61,6.61,0,0,0,161.83,92.43ZM128,98.77c1.13.67,2.3,1.27,3.48,1.83,2.36,1.12,6.09,1.89,5.53,5.28-3,6.43-11.47-4.94-11.22-8.81A23,23,0,0,0,128,98.77Z"/>
          <path class="cls-1" d="M126.57,118.42c2.73.66,4.72,2.57,6.81,4.33,2.16,1.2,1.79-2.92.24-3.35-5.37-3.89-31.19-3.29-30.44,5.89.75.42,1.17,0,1.65-.46,1.75-1.57,3.44-3.22,5.31-4.64,3.34-2.53,7.84-.18,8.65,2.85,1.86,4.88-1.94,12.73.62,15.76a1.55,1.55,0,0,0,2.44-.24c2-3.58-.58-7.43-1-11.09C120,124.21,122.33,117.22,126.57,118.42Zm7.1,2a1.54,1.54,0,0,1,.37,1.89c-1.68-.8-2.67-2.31-4-3.41A6.2,6.2,0,0,1,133.67,120.4Zm-30,4.67c-.31-2.95,3-4.7,5.62-5.09Zm18.1,11.59a12.51,12.51,0,0,1-.5,1.72c-1.18.16-1.77-.17-1.91-1.23a17.84,17.84,0,0,1,.69-7.79c.21.14.29.16.3.2C120.93,131.91,122.18,134.13,121.81,136.66Zm-1.83-13a9,9,0,0,0-4.55-5.19l.06-.34c2.54-.07,5.06-.61,7.65-.26Z"/>
          <path class="cls-1" d="M150.72,98.46c3.43,3.8,8.43,2.07,11-1.7l-.23-.3c-11.5,6.36-18-13.11-10.68-20.1,4.11-4.69,11-1.27,13,3.71,1,2.14,1.36,4.56,2.23,6.76s3.73,1,4-1a11.5,11.5,0,0,0-8.69-12.91c-7-1.17-11.89,1.53-13.66,8.52C146.56,87.1,146.72,93.87,150.72,98.46Zm-2.44-7.55c1.63,4.67,6,8.83,11.31,7.2-2.5,3.06-7.45,2.24-9.19-1.09-.91-1.9-2.25-3.88-2.37-6ZM159,73.33c6.07-.28,11.28,6.65,10.31,12.32a1.84,1.84,0,0,1-1.6,1.69c-.86,0-1.2-.63-1.39-1.34-1-5.11-3.18-10.36-8.5-12.17v-.27A8.06,8.06,0,0,1,159,73.33Z"/>
          <path class="cls-1" d="M107,80c7.48-1.15,10.48,5.82,6.53,11.58-1.53,2.66-4.16,5-4.45,8.14s2.35,3.54,5,3.27c-.82,2.37-2.43,5.58,0,7.46,4.17,2.93,9.61-2.23,9.86-6.58-.18-3-2.71-.27-3.38,1-5.73,8.22-10.19,3.74-4.73-3.47a18.45,18.45,0,0,0,6-9.14c-1.87,3.08-3.18,6.44-6.25,8.59-1.55,1.61-5.43,2.92-5.91-.24s2.09-5.25,3.65-7.63c1.49-2.54,4.16-4.54,4-7.76.35-7.78-7.37-9.73-12.21-4.88l.21.26A7.09,7.09,0,0,1,107,80ZM116,109.81c3.71-1.13,5.49-6.64,7.49-6.54,0,3.81-4.07,8.68-8.17,7A3.55,3.55,0,0,1,116,109.81Zm-6.63-31.23c6.17-1.53,9.43,5.32,6.21,10.25,1-5.52-1.17-9.51-7.14-9.5l0-.34A3.8,3.8,0,0,1,109.33,78.58Z"/>
          <path class="cls-1" d="M93.47,113.58c5.51-3.52,13-2.92,17.44-8.2a29,29,0,0,1-3.75.76c-3.88.4-10.79-1.07-10.13,5A46.14,46.14,0,0,0,82.92,122a34.39,34.39,0,0,0-5.51,9.51c-1.27,2.82-1.29,8.59,2.63,4.06C85.36,126.44,82.25,120.31,93.47,113.58Zm4.21-4.87a4.58,4.58,0,0,1,3-1.78c2.74-.07,5.7-.66,8.37-.31-2.86,2.49-6.64,2.88-10.1,4C97.63,111.42,96.85,109.73,97.68,108.71ZM85,121.65c-2.31,4.26-2.87,9.16-5.27,13.41-2.68,3.59-3,.26-2.3-2.31,1.58-4.65,4.16-9.38,8-12.51l.18.17A11.55,11.55,0,0,1,85,121.65Z"/>
          <path class="cls-1" d="M148.71,170.3c-10.76-3.75-22.65,6.15-23.32,16.95l.31.06c4.48-11.2,21.44-22.19,30.49-9.55C155.73,174.34,151.84,171.42,148.71,170.3Zm2.46,2.29c-7.11-2.71-14.84.65-19.9,5.8-1.77,1.63-2.77,4-4.56,5.55,1.92-10,15.6-17.95,24.59-11.6Z"/>
          <path class="cls-1" d="M103.35,170c-4.56.36-8.88,4.6-8.82,9.29a3.26,3.26,0,0,0,1.34,2.87c6.42,3.58,15.78,2.67,21-2.66.85-.87,1.68-1.92,1.34-3.35a2.42,2.42,0,0,0-2.52.07c-4.16,2.13-8.17,4.57-12.29,6.76-2.33,1.14-5.38-1.24-5.93-3.31C96.16,175,99.76,172.17,103.35,170Zm1.85,13c3.57-1.94,8.63-6.55,12.65-6.42-.45,3.78-9.93,8.62-12.91,6.81C105,183.16,105.08,183,105.2,182.9Zm-7.4-8.56c-1.52,3.76-1.69,5,.74,8.29-5.36-.72-3.61-7.3-.42-9.65l.26.1A12.94,12.94,0,0,0,97.8,174.34Z"/>
        </g>
        <circle class="cls-2" cx="123.95" cy="143.82" r="123.57"/>
        <circle class="cls-2" cx="123.95" cy="20.33" r="19.96"/>
        <circle class="cls-2" cx="123.95" cy="267.47" r="19.96"/>
      </g>
    </g>
  </g>
</svg>
